<svg width="435" height="435" viewBox="0 0 435 435" fill="none" xmlns="http://www.w3.org/2000/svg">
<path d="M130.823 313.304L58.9937 224.297L118.1 151.473H151.232L93.1854 222.139L167.135 313.304H130.823ZM27.1875 313.304V54.375H55.8131V313.304H27.1875Z" fill="white"/>
<path d="M194.17 394.219V151.473H220.675V172.781C227.92 165.409 236.313 159.655 245.855 155.519C255.397 151.383 265.646 149.315 276.601 149.315C291.267 149.315 304.52 153.092 316.359 160.644C328.375 168.016 337.917 177.995 344.985 190.582C352.229 203.169 355.852 217.104 355.852 232.388C355.852 247.672 352.229 261.608 344.985 274.195C337.917 286.781 328.375 296.851 316.359 304.403C304.52 311.775 291.267 315.461 276.601 315.461C266.176 315.461 256.369 313.573 247.181 309.797C237.992 306.021 229.864 300.807 222.796 294.154V394.219H194.17ZM272.891 289.029C282.963 289.029 292.063 286.512 300.191 281.477C308.496 276.262 315.034 269.43 319.805 260.978C324.752 252.347 327.226 242.817 327.226 232.388C327.226 221.959 324.752 212.519 319.805 204.068C315.034 195.437 308.496 188.604 300.191 183.57C292.063 178.355 282.963 175.748 272.891 175.748C262.819 175.748 253.63 178.355 245.325 183.57C237.197 188.604 230.659 195.437 225.711 204.068C220.94 212.519 218.555 221.959 218.555 232.388C218.555 242.817 220.94 252.347 225.711 260.978C230.659 269.43 237.197 276.262 245.325 281.477C253.63 286.512 262.819 289.029 272.891 289.029Z" fill="white"/>
<path d="M387.138 316.54C381.307 316.54 376.36 314.562 372.296 310.606C368.408 306.471 366.464 301.436 366.464 295.502C366.464 289.568 368.408 284.624 372.296 280.668C376.36 276.532 381.307 274.464 387.138 274.464C393.146 274.464 398.094 276.532 401.981 280.668C405.869 284.624 407.812 289.568 407.812 295.502C407.812 301.436 405.869 306.471 401.981 310.606C398.094 314.562 393.146 316.54 387.138 316.54Z" fill="#DC143C"/>
</svg>
